<svg width="50.000000" height="50.000000" viewBox="0 0 50 50" fill="none" xmlns="http://www.w3.org/2000/svg" xmlns:xlink="http://www.w3.org/1999/xlink">
	<desc>
			Created with Pixso.
	</desc>
	<defs/>
	<rect id="Rectangle" width="50.000000" height="50.000000" fill="#F7654A" fill-opacity="1.000000"/>
	<path id="" d="M33.71 16.42C34.18 16.42 34.57 16.81 34.57 17.28L34.57 19C34.57 19.46 34.18 19.85 33.71 19.85L14.85 19.85C14.38 19.85 14 19.46 14 19L14 17.28C14 16.81 14.38 16.42 14.85 16.42L33.71 16.42ZM33.71 23.28C34.18 23.28 34.57 23.67 34.57 24.14L34.57 25.85C34.57 26.32 34.18 26.71 33.71 26.71L14.85 26.71C14.38 26.71 14 26.32 14 25.85L14 24.14C14 23.67 14.38 23.28 14.85 23.28L33.71 23.28ZM33.71 30.14C34.18 30.14 34.57 30.53 34.57 31L34.57 32.71C34.57 33.18 34.18 33.57 33.71 33.57L14.85 33.57C14.38 33.57 14 33.18 14 32.71L14 31C14 30.53 14.38 30.14 14.85 30.14L33.71 30.14Z" fill="#FFFFFF" fill-opacity="1.000000" fill-rule="evenodd"/>
</svg>
